<svg id="Layer_1" data-name="Layer 1" xmlns="http://www.w3.org/2000/svg" viewBox="0 0 687.501 145.907">
  <defs>
    <style>
      .cls-1 {
        fill: #124481;
      }
    </style>
  </defs>
  <g>
    <path class="cls-1" d="M681.477,61.989l-99.288.074-.074-14.932,80.95-.007c4.671,0,3.141-7.519,1.707-8.972l-77.618-.017c-2.841,0-5.833-2.238-5.833-4.579V5.227c0-2.479,2.577-5.192,5.667-5.192l99.91-.022.106,14.643-82.916.029c-.838,3.105-.799,5.77.189,8.952l76.377.092c3.89.005,6.801,3.998,6.805,6.937l.04,25.668c.003,2.099-2.705,5.653-6.023,5.655Z" data-index="0"></path>
    <path class="cls-1" d="M567.971.06l.026,56.612c-.328,2.381-2,5.355-5.276,5.355l-98.119.019c-4.666,0-7.114-3.63-7.103-7.277l.026-54.732,21.999-.004v44.367c0,.272.227,1.074.343,1.315.155.322,1.115.558,1.723.558l64.661-.036.044-46.209,21.675.032Z" data-index="1"></path>
    <g>
      <path class="cls-1" d="M300.208,15.153h-58.308c-1.01,0-2.017,1.106-2.016,1.948l.016,27.25c0,1.154,1.133,2.092,2.489,1.909l49.399.015.02,16.755-60.972-.2c-8.297-.027-14.726-7.359-14.694-14.083l.176-37.775c.021-4.582,5.092-10.751,10.865-10.762l91.357-.176c3.468-.007,5.273,2.528,5.273,5.259v81.064c0,2.801-2.752,4.509-5.774,4.358l-95.419-.006.005-16.758,77.265-.009c1.018,0,2.042-.912,2.042-1.746V16.759c.001-.473-.984-1.607-1.722-1.607Z" data-index="2"></path>
      <path class="cls-1" d="M180.475,91.466l-59.655.09.026-13.824,51.329-.02c2.224,0,4.755-1.339,5.131-3.337.342-1.817.214-3.683.011-5.641l-28.72-.07c-10.803-.026-22.33-3.69-28.01-11.963-2.894-4.216-3.348-8.817-3.794-13.716l-.007-42.963,25.736.007.047,38.209c1.166,6.115,5.644,12.005,13.158,12.564,7.187.535,14.186.095,21.456.245,1.308.027,2.46-.807,2.763-1.943l.062-49.059,24.988-.045.032,69.179c-.3,12.239-9.478,22.264-24.554,22.286Z" data-index="3"></path>
      <path class="cls-1" d="M21.797,46.246l84.066.012-.043,15.804-98.697-.002C3.132,62.061-.002,58.924,0,55.699L.033,6.752C.035,4.228,2.692.106,6.131.103L105.286.019l.089,15.147-81.796-.01c-1.928,0-3.45,1.071-3.455,2.932l-.069,25.326c-.002.645.746,2.832,1.741,2.832Z" data-index="4"></path>
      <path class="cls-1" d="M423.669,40.739c-.04-7.699-2.439-16.595-11.021-20.585-4.852-1.784-9.963-4.55-15.509-4.561l-38.223-.074-.03,46.517h-21.835s-.027-57.718-.027-57.718c.023-2.307,1.919-4.292,4.737-4.288l69.604.106c12.39.019,32.524,9.406,32.522,19.714l-.009,42.173-20.1.033-.111-21.316Z" data-index="5" style="opacity: 1;"></path>
    </g>
  </g>
  <g>
    <path class="cls-1" d="M16.352,107.872c0-.635.049-1.241.147-1.821.099-.579.147-1.176.147-1.789,0-.24.021-.535.065-.886.044-.35.076-.667.099-.951.021-.241.033-.422.033-.542s.011-.224.032-.312c.021-.087.065-.164.132-.229.065-.066.186-.143.36-.23.175.11.323.214.443.312.12.098.181.29.181.574,0,.524-.006,1.006-.017,1.443-.012.438-.033.859-.065,1.264-.033.405-.065.81-.099,1.214-.033.405-.071.849-.115,1.329.175-.043.399-.125.673-.246.273-.119.509-.213.706-.278,1.465-.591,3.046-1.165,4.742-1.724,1.695-.558,3.331-.989,4.906-1.296.262-.065.688-.152,1.279-.263.591-.109,1.269-.213,2.035-.312.766-.099,1.575-.186,2.428-.263.854-.076,1.663-.114,2.429-.114,1.094,0,2.019.098,2.773.295s1.132.569,1.132,1.116c0,.635-.225,1.104-.673,1.411s-.892.481-1.329.524c.109-.306.284-.612.525-.919.24-.306.383-.612.427-.919-.285-.043-.542-.098-.771-.164-.229-.065-.53-.098-.902-.098-1.116,0-2.079.011-2.888.032-.81.022-1.592.077-2.347.164-.755.088-1.531.208-2.33.361s-1.745.36-2.839.623c-.153.044-.498.148-1.033.312-.537.164-1.165.36-1.888.59-.722.23-1.493.481-2.313.755-.82.274-1.575.542-2.265.805-.688.263-1.274.498-1.755.705-.481.208-.755.378-.82.509l-1.051,10.305c-.021.307-.061.64-.114,1.001-.056.361-.082.705-.082,1.033.24-.043.617-.164,1.132-.36.514-.197.936-.35,1.264-.46.284-.087.65-.196,1.099-.328.448-.131.914-.257,1.396-.377.48-.12.945-.235,1.395-.345.448-.109.825-.175,1.132-.197.46-.065.842-.098,1.148-.098.569,0,.908.109,1.018.328s.109.547,0,.984c-.109.021-.186.038-.229.049-.044.012-.143.028-.296.05-.021-.132-.055-.235-.098-.312-.045-.076-.143-.114-.296-.114-.416,0-.968.071-1.657.213-.689.143-1.411.317-2.166.525s-1.482.427-2.182.656c-.701.229-1.27.433-1.707.607-.176.065-.345.131-.509.196s-.345.11-.541.132l-1.051,11.485c.263-.021.559-.126.887-.312s.612-.334.853-.443c.897-.394,1.833-.728,2.807-1.001.973-.273,1.952-.486,2.937-.64.197-.044.596-.104,1.198-.181.602-.076,1.312-.158,2.133-.246.82-.087,1.707-.158,2.658-.213.952-.055,1.876-.082,2.773-.082.634,0,1.23.021,1.788.065.559.044,1.051.115,1.477.214.427.098.761.224,1.001.377.241.152.361.35.361.591,0,.175-.006.295-.017.361-.011.065-.027.108-.049.131-.022.021-.055.049-.099.082s-.109.104-.197.213c-.087-.065-.147-.131-.18-.196-.033-.065-.094-.137-.181-.214-.088-.076-.219-.147-.395-.213-.175-.065-.438-.132-.787-.197-.722-.131-1.706-.196-2.953-.196-1.116,0-2.271.032-3.463.098-1.192.066-2.391.187-3.594.361s-2.379.41-3.527.706c-1.148.295-2.227.661-3.232,1.099-.219.088-.399.164-.542.23-.143.065-.312.152-.508.262-.176.088-.351.17-.525.246-.176.077-.317.148-.427.214-.131.087-.229.24-.295.459-.066.219-.115.46-.148.723-.032.263-.049.53-.049.804s-.012.52-.033.738c-.065.743-.191,1.258-.377,1.543-.187.283-.399.426-.64.426-.176,0-.351-.065-.525-.196-.176-.132-.34-.29-.492-.476-.153-.187-.274-.384-.361-.591-.088-.209-.131-.389-.131-.542,0-.635.07-1.121.213-1.46.143-.34.307-.603.492-.788s.366-.339.542-.459c.175-.121.295-.279.36-.477.021-.087.05-.312.082-.672.033-.361.066-.761.099-1.198.033-.438.061-.854.082-1.247s.033-.656.033-.787c0-.263.011-.422.032-.477s.044-.202.066-.442c0-.176-.006-.345-.017-.509-.012-.164-.006-.334.017-.509l.426-5.842-2.756,1.411c-.022,0-.159.082-.41.246-.252.164-.487.246-.706.246s-.328-.142-.328-.427c0-.131.082-.272.246-.426s.355-.307.574-.46c.219-.152.438-.295.656-.427.219-.131.383-.219.492-.263l2.429-1.148c0-.568.021-1.104.065-1.607.044-.504.099-1.028.164-1.576l.919-9.188c-.219.11-.438.219-.656.328-.219.11-.448.208-.689.296l-3.904,2.034c-.438.241-.859.487-1.264.738-.405.252-.815.521-1.23.805-.11.065-.214.131-.312.196s-.213.143-.345.229c-.109.088-.191.153-.246.197-.054.044-.147.109-.278.197-.263.131-.471.196-.624.196-.306,0-.459-.164-.459-.492,0-.24.339-.606,1.018-1.1.678-.492,1.448-.995,2.313-1.509.863-.514,1.695-.984,2.494-1.411.798-.427,1.317-.706,1.559-.837l2.855-1.346ZM13.726,138.359c0-.088.005-.229.017-.427.011-.197.021-.405.033-.624.011-.219.026-.415.049-.59.021-.176.044-.296.065-.361-.175.044-.268.087-.278.131-.012.044-.061.143-.148.296-.131.306-.181.602-.147.886s.169.514.41.689Z" data-index="6"></path>
    <path class="cls-1" d="M59.506,122.705c0-.175.011-.442.033-.804.021-.361.07-.732.147-1.116.076-.382.186-.716.328-1.001.142-.283.333-.426.574-.426.328,0,.492.143.492.426,0,.482-.027.843-.082,1.083-.055.241-.104.559-.147.952-.022.307-.027.651-.017,1.034s.017.738.017,1.066c.109-.021.251-.104.427-.246.175-.143.366-.312.574-.509.207-.197.41-.394.607-.591.196-.197.36-.35.492-.46.131-.087.246-.169.344-.246.099-.076.214-.169.345-.278.132-.109.334-.284.607-.525.273-.24.563-.476.87-.705.306-.23.601-.433.886-.607.284-.175.514-.263.689-.263.108,0,.207.033.295.099.087.065.131.153.131.263,0,.196-.071.339-.213.427-.143.087-.312.196-.509.328-.787.547-1.581,1.187-2.379,1.919-.799.733-1.537,1.374-2.216,1.92-.153.11-.273.214-.36.312-.088.098-.208.202-.361.312.065.153.147.35.246.591s.229.476.394.705.361.427.591.591c.23.164.498.246.805.246.283,0,.596-.07.935-.213s.678-.317,1.018-.525c.339-.208.656-.427.952-.656.295-.229.552-.432.771-.607l1.772-1.771c.328-.438.602-.656.82-.656.153,0,.229.12.229.36,0,.153-.12.383-.36.689-.241.307-.521.623-.837.951-.317.328-.624.63-.919.903-.296.273-.509.465-.64.574-.635.524-1.28.979-1.937,1.361-.656.383-1.302.574-1.937.574-.503,0-.984-.158-1.443-.476-.46-.316-.897-.869-1.313-1.657-.131.088-.284.219-.459.394-.176.176-.351.367-.525.574-.175.209-.339.41-.492.607-.152.197-.273.361-.36.492-.329.438-.575.799-.739,1.083s-.295.509-.394.673-.181.284-.246.361c-.065.076-.152.114-.263.114-.043,0-.152-.021-.328-.065-.043-.109-.07-.164-.082-.164-.011,0-.017-.055-.017-.164,0-.307.104-.651.312-1.034.208-.382.448-.754.722-1.115s.547-.694.82-1.001.487-.558.64-.755c.438-.525.717-.837.837-.936s.17-.186.148-.263c-.022-.076-.077-.24-.165-.492-.087-.251-.131-.804-.131-1.657Z" data-index="7"></path>
    <path class="cls-1" d="M90.387,128.58c0-.219.017-.618.049-1.198.033-.579.082-1.247.148-2.002.065-.755.152-1.537.262-2.347.109-.809.235-1.553.378-2.231.142-.678.306-1.235.492-1.674.186-.438.399-.656.64-.656.153,0,.307.044.46.132.043.196.076.339.099.427.021.087.021.175,0,.262-.022.088-.05.203-.082.345-.033.143-.082.345-.148.607-.307,1.575-.53,3.106-.673,4.595-.143,1.487-.213,3.052-.213,4.692.131-.088.263-.317.394-.689.132-.371.279-.804.443-1.296s.345-1.018.541-1.575c.197-.558.422-1.071.673-1.542.252-.471.53-.858.837-1.165s.646-.46,1.018-.46c.481,0,.837.225,1.066.673s.345.902.345,1.362c.131-.044.284-.126.459-.246.176-.12.329-.225.46-.312.152-.108.339-.246.558-.41s.438-.316.656-.459.427-.268.624-.378c.196-.108.36-.164.492-.164.197,0,.295.132.295.395,0,.109-.169.295-.509.558-.339.263-.722.541-1.148.837-.427.295-.831.58-1.214.854s-.629.476-.738.606c-.065.088-.164.34-.296.755-.131.416-.328.892-.591,1.428-.262.536-.606,1.088-1.033,1.657-.427.568-.979,1.05-1.657,1.444-.132.065-.279.131-.443.196s-.301.143-.41.229c-.131.066-.235.241-.312.525-.077.284-.143.591-.197.919s-.093.65-.114.968c-.022.317-.033.553-.033.706,0,.306.021.634.065.984.044.35.071.673.082.968.011.296-.011.542-.065.739-.055.196-.17.295-.345.295-.241,0-.383-.071-.427-.213-.044-.143-.087-.367-.131-.673-.197-1.379-.372-2.785-.525-4.218s-.229-2.85-.229-4.249ZM92.652,130.746c.263-.153.541-.361.837-.624.295-.263.574-.553.837-.87.262-.317.486-.634.672-.951.187-.317.312-.596.378-.837l-1.641,1.411c-.197.197-.351.345-.46.443s-.196.202-.263.312c-.065.109-.126.246-.18.41-.056.164-.115.399-.181.706ZM93.472,127.857c.109-.065.175-.114.196-.147.022-.033.077-.093.165-.181.108-.065.175-.109.196-.131s.076-.065.164-.132c.481-.415.848-.716,1.1-.902.251-.186.427-.35.525-.492.098-.142.152-.301.164-.476.011-.175.016-.448.016-.82,0-.503-.098-.755-.295-.755-.153,0-.355.153-.607.459-.252.307-.492.673-.722,1.1s-.433.87-.607,1.329c-.175.46-.273.843-.295,1.148Z" data-index="8"></path>
    <path class="cls-1" d="M121.498,123.558c0-.415.108-.858.328-1.329.218-.47.492-.907.82-1.312.328-.404.7-.744,1.115-1.018.416-.273.82-.41,1.215-.41.722,0,1.099.273,1.132.82s-.202,1.138-.705,1.772c-.263.307-.657.64-1.182,1.001-.525.36-1.04.563-1.543.606,0,.351.011.662.033.936.021.274.175.553.459.837.284.285.646.427,1.083.427.284,0,.58-.055.887-.164.306-.109.602-.235.886-.377.284-.143.553-.296.804-.46.252-.164.454-.312.607-.443.132-.108.235-.196.312-.262.077-.066.17-.143.279-.23.328-.263.563-.47.705-.623.143-.153.252-.273.329-.361.076-.087.164-.142.262-.164.099-.021.268-.032.509-.032.044.24.061.404.05.492-.012.087-.094.219-.246.394-.307.307-.668.646-1.083,1.018-.416.372-.87.722-1.362,1.05s-.996.602-1.51.82-1.022.328-1.525.328c-.744,0-1.379-.263-1.903-.787-.395-.395-.619-.799-.673-1.215-.056-.415-.082-.853-.082-1.312ZM122.975,122.771c.196-.109.421-.241.673-.395.251-.152.486-.322.705-.509.219-.186.405-.394.559-.623.152-.229.24-.476.262-.738-.219.044-.448.147-.688.312-.241.164-.46.355-.656.574-.197.219-.373.454-.525.706-.153.251-.263.476-.328.673Z" data-index="9"></path>
    <path class="cls-1" d="M150.935,128.58c-.153,0-.262-.088-.328-.263-.065-.175-.104-.366-.114-.574-.012-.208-.006-.41.017-.607.021-.197.032-.328.032-.394-.021-.395-.027-.793-.017-1.198.011-.404.006-.814-.016-1.23,0-.153.005-.448.016-.886s.044-.887.099-1.346c.055-.46.137-.87.246-1.23.109-.361.252-.542.427-.542.438,0,.661.143.673.427.011.284-.006.656-.049,1.116-.022.175-.033.35-.033.524v.525c0,.241-.012.389-.033.443s-.032.191-.032.41c.24-.175.459-.378.656-.607s.547-.345,1.05-.345c.153,0,.355-.005.607-.017.251-.011.52-.016.804-.016.481,0,.93.027,1.346.082.415.055.624.191.624.41,0,.24-.115.389-.345.442-.23.055-.509.082-.837.082-.219,0-.443-.005-.673-.017-.229-.011-.433-.016-.607-.016-.307,0-.558.005-.755.016-.196.012-.36.045-.492.099-.131.055-.246.137-.345.246-.098.11-.213.274-.344.492-.176.285-.329.591-.46.919s-.229.689-.295,1.083c-.045.219-.066.443-.066.673s-.011.443-.032.64c-.022.197-.082.356-.181.477s-.279.181-.542.181Z" data-index="10"></path>
    <path class="cls-1" d="M180.438,128.841c-.437,0-.826-.142-1.165-.426s-.596-.58-.771-.887c-.395-.743-.619-1.624-.673-2.642-.056-1.018.005-1.941.18-2.773.021-.175.061-.382.115-.623.055-.24.126-.476.213-.706.088-.229.197-.426.329-.59.131-.164.272-.246.426-.246.372,0,.591.093.657.278.065.187.065.476,0,.87-.066.394-.159.897-.279,1.509-.121.613-.181,1.335-.181,2.166,0,.241.021.531.065.87.044.34.115.662.214.968.098.307.229.563.394.771s.355.312.574.312c.263,0,.558-.093.886-.278s.646-.41.952-.673c.306-.263.585-.525.837-.788.251-.263.442-.47.574-.623.044-.044.164-.197.361-.46.196-.263.426-.546.688-.853s.53-.58.805-.821c.272-.24.486-.36.64-.36.152,0,.229.131.229.394,0,.153-.104.389-.312.705-.208.318-.454.651-.738,1.001-.285.351-.563.679-.837.985-.274.307-.476.524-.607.656-.196.196-.421.427-.673.688-.252.263-.53.509-.837.738-.307.23-.629.427-.968.591-.34.164-.706.246-1.1.246ZM179.388,115.813c0-.371.099-.694.295-.968.197-.273.416-.41.656-.41.263,0,.481.164.656.492.307.612.345,1.089.115,1.428s-.509.509-.837.509c-.241,0-.448-.082-.623-.246-.176-.164-.263-.433-.263-.805Z" data-index="11"></path>
    <path class="cls-1" d="M207.118,123.558c0-.415.108-.858.328-1.329.218-.47.492-.907.82-1.312.328-.404.7-.744,1.115-1.018.416-.273.82-.41,1.215-.41.722,0,1.099.273,1.132.82s-.202,1.138-.705,1.772c-.263.307-.657.64-1.182,1.001-.525.36-1.04.563-1.543.606,0,.351.011.662.033.936.021.274.175.553.459.837.284.285.646.427,1.083.427.284,0,.58-.055.887-.164.306-.109.602-.235.886-.377.284-.143.553-.296.804-.46.252-.164.454-.312.607-.443.132-.108.235-.196.312-.262.077-.066.17-.143.279-.23.328-.263.563-.47.705-.623.143-.153.252-.273.329-.361.076-.087.164-.142.262-.164.099-.021.268-.032.509-.032.044.24.061.404.05.492-.012.087-.094.219-.246.394-.307.307-.668.646-1.083,1.018-.416.372-.87.722-1.362,1.05s-.996.602-1.51.82-1.022.328-1.525.328c-.744,0-1.379-.263-1.903-.787-.395-.395-.619-.799-.673-1.215-.056-.415-.082-.853-.082-1.312ZM208.595,122.771c.196-.109.421-.241.673-.395.251-.152.486-.322.705-.509.219-.186.405-.394.559-.623.152-.229.24-.476.262-.738-.219.044-.448.147-.688.312-.241.164-.46.355-.656.574-.197.219-.373.454-.525.706-.153.251-.263.476-.328.673Z" data-index="12"></path>
    <path class="cls-1" d="M237.015,127.004c-.351,0-.591-.187-.722-.559-.132-.371-.192-.837-.181-1.395.011-.558.087-1.165.229-1.821.142-.656.317-1.264.525-1.821.207-.558.432-1.022.673-1.395.24-.372.459-.559.656-.559.371,0,.541.176.509.525-.033.351-.138.799-.312,1.346s-.366,1.154-.574,1.821c-.208.668-.312,1.318-.312,1.952l1.575-2.396c.044-.087.137-.246.279-.476.142-.229.306-.459.492-.689.186-.229.382-.432.591-.606.207-.175.41-.263.606-.263.263,0,.471.175.624.524l.196,1.838c0,.197.011.504.033.919.021.416.071.832.147,1.247.077.416.202.783.378,1.1.175.317.415.476.722.476.328,0,.673-.202,1.034-.606.36-.405.71-.854,1.05-1.346.339-.492.645-.94.919-1.346.273-.404.486-.607.64-.607.328,0,.476.127.443.378-.033.252-.137.541-.312.869-.176.328-.373.635-.591.919-.219.285-.351.46-.395.525-.109.153-.257.34-.442.558-.187.219-.383.433-.591.641s-.416.399-.624.574-.41.284-.606.328c-.219.065-.427.098-.624.098-.503,0-.902-.186-1.197-.558-.296-.372-.521-.776-.673-1.214-.153-.503-.258-.957-.312-1.362-.056-.404-.083-.771-.083-1.1v-.853c0-.241-.032-.438-.098-.591-.263.175-.542.53-.837,1.066-.296.536-.603,1.089-.919,1.657-.317.569-.635,1.078-.952,1.526s-.64.673-.968.673Z" data-index="13"></path>
    <path class="cls-1" d="M267.83,124.214c0-.394.082-.858.246-1.395s.394-1.05.689-1.542c.295-.493.645-.908,1.05-1.247.404-.34.848-.509,1.329-.509.7,0,1.05.438,1.05,1.312,0,.569-.143.854-.426.854-.328,0-.525-.284-.591-.854-.285.196-.563.509-.837.936-.274.426-.492.892-.656,1.395s-.258,1.022-.279,1.559c-.022.536.065,1.001.263,1.395.109.307.268.553.476.738.208.187.509.279.902.279.569,0,1.104-.126,1.608-.377.503-.252.979-.569,1.428-.952.448-.383.858-.804,1.23-1.264.372-.459.711-.896,1.018-1.312.24-.328.459-.492.656-.492.152,0,.263.077.328.229.065.153.043.34-.065.558-.088.241-.252.509-.492.805-.241.295-.504.591-.788.886-.284.296-.563.574-.837.837s-.509.481-.705.656c-.46.438-.985.799-1.575,1.083-.591.284-1.204.427-1.838.427-.569,0-1.056-.109-1.461-.328s-.733-.514-.984-.886c-.252-.372-.438-.799-.558-1.28-.121-.481-.181-.984-.181-1.51Z" data-index="14"></path>
    <path class="cls-1" d="M297.694,123.558c0-.415.108-.858.328-1.329.218-.47.492-.907.82-1.312.328-.404.7-.744,1.115-1.018.416-.273.82-.41,1.215-.41.722,0,1.099.273,1.132.82s-.202,1.138-.705,1.772c-.263.307-.657.64-1.182,1.001-.525.36-1.04.563-1.543.606,0,.351.011.662.033.936.021.274.175.553.459.837.284.285.646.427,1.083.427.284,0,.58-.055.887-.164.306-.109.602-.235.886-.377.284-.143.553-.296.804-.46.252-.164.454-.312.607-.443.132-.108.235-.196.312-.262.077-.066.17-.143.279-.23.328-.263.563-.47.705-.623.143-.153.252-.273.329-.361.076-.087.164-.142.262-.164.099-.021.268-.032.509-.032.044.24.061.404.05.492-.012.087-.094.219-.246.394-.307.307-.668.646-1.083,1.018-.416.372-.87.722-1.362,1.05s-.996.602-1.51.82-1.022.328-1.525.328c-.744,0-1.379-.263-1.903-.787-.395-.395-.619-.799-.673-1.215-.056-.415-.082-.853-.082-1.312ZM299.17,122.771c.196-.109.421-.241.673-.395.251-.152.486-.322.705-.509.219-.186.405-.394.559-.623.152-.229.24-.476.262-.738-.219.044-.448.147-.688.312-.241.164-.46.355-.656.574-.197.219-.373.454-.525.706-.153.251-.263.476-.328.673Z" data-index="15"></path>
    <path class="cls-1" d="M358.734,121.918c0-1.072.263-2.335.787-3.791.525-1.454,1.182-2.904,1.97-4.348.787-1.444,1.646-2.784,2.576-4.021.93-1.235,1.799-2.16,2.608-2.772.263-.197.481-.372.656-.525s.345-.301.509-.443c.164-.142.35-.295.558-.459s.477-.355.805-.574c.919-.569,1.969-1.104,3.15-1.608,1.182-.503,2.352-.755,3.512-.755,1.684,0,3.019.465,4.003,1.395.985.931,1.478,2.216,1.478,3.856,0,.787-.094,1.554-.279,2.297-.187.744-.433,1.461-.738,2.149-.307.689-.646,1.346-1.018,1.97-.372.623-.744,1.22-1.115,1.788-.373.547-.718,1.028-1.034,1.444-.317.416-.635.804-.952,1.165-.317.36-.646.728-.984,1.099-.339.373-.717.788-1.132,1.247l-3.512,3.249c-.656.591-1.182,1.013-1.575,1.264-.394.252-.689.471-.886.656-.197.187-.323.41-.378.673s-.082.7-.082,1.312c0,.416-.021.755-.065,1.018s-.065.602-.065,1.018c.372.284.743.525,1.116.722.371.197.754.438,1.148.722,2.209,1.642,4.386,3.381,6.53,5.219,2.144,1.837,4.397,3.599,6.761,5.283.24.175.394.295.459.361.065.065.099.306.099.722-.131.044-.219.076-.263.099-.044.021-.143.032-.295.032-.11,0-.449-.196-1.018-.591-.569-.394-1.247-.892-2.035-1.493-.787-.602-1.636-1.258-2.543-1.969-.908-.711-1.767-1.4-2.576-2.067-.81-.668-1.526-1.253-2.149-1.756-.624-.503-1.045-.842-1.264-1.018-.153-.131-.416-.339-.787-.623-.373-.284-.767-.58-1.182-.886-.416-.307-.81-.574-1.182-.805-.372-.229-.646-.366-.82-.41,0,.241-.017.395-.049.46-.033.065-.05.24-.05.524,0,.832-.006,1.718-.017,2.658s-.016,1.888-.016,2.839.011,1.887.032,2.806.065,1.772.132,2.561c.021.262.06.524.114.787s.087.509.099.738c.011.229-.022.416-.099.559-.077.142-.235.213-.476.213-.416,0-.717-.273-.902-.82-.187-.547-.312-1.177-.378-1.887-.065-.712-.099-1.4-.099-2.068s-.011-1.121-.032-1.361c-.044-.525-.065-1.177-.065-1.953s.005-1.58.016-2.412c.012-.831.027-1.651.05-2.461.021-.81.032-1.521.032-2.133-.438-.219-1.017-.405-1.739-.559-.722-.153-1.4-.229-2.034-.229-.176,0-.378.033-.607.099s-.454.099-.673.099c-.328,0-.524-.153-.591-.46-.087-.372.066-.635.46-.787.394-.153.787-.328,1.182-.525.48-.263.919-.514,1.312-.755.394-.24.831-.514,1.312-.82.24-.131.443-.257.607-.377s.366-.257.606-.41c.176-.109.301-.208.378-.296.076-.087.12-.181.131-.278.011-.099.011-.219,0-.361s-.016-.345-.016-.607l.131-1.969c.175-2.122.415-4.223.722-6.301s.667-4.157,1.083-6.235l.82-3.216c-.153.044-.317.137-.492.278-.175.143-.328.269-.459.378-.153.175-.29.307-.41.394-.121.088-.269.208-.443.361-.897.81-1.783,1.811-2.658,3.002-.875,1.193-1.657,2.457-2.347,3.791-.688,1.335-1.247,2.669-1.674,4.004-.426,1.334-.64,2.56-.64,3.675,0,.525.033.865.099,1.018.065.153.152.229.263.229.065,0,.137-.017.213-.049.077-.033.148-.05.214-.05.175,0,.3.061.377.181.076.121.093.252.05.395-.045.143-.159.273-.345.394-.187.12-.443.181-.771.181s-.574-.126-.738-.378c-.164-.251-.273-.547-.328-.886s-.082-.678-.082-1.018v-.804ZM365.92,129.564c0-.307-.005-.635-.016-.984-.012-.351.037-.624.147-.821-.088,0-.246.061-.477.181-.229.121-.465.252-.705.395-.241.143-.454.278-.64.41-.187.131-.302.218-.345.262.131.044.295.088.492.132.197.043.394.087.591.131.175.044.35.093.524.148.175.054.317.104.427.147ZM367.857,124.444c.743-.524,1.526-1.148,2.347-1.87s1.618-1.493,2.396-2.313c.776-.82,1.51-1.646,2.198-2.478.689-.832,1.285-1.619,1.789-2.363.809-1.182,1.542-2.429,2.198-3.741.657-1.312.985-2.745.985-4.299,0-.94-.334-1.744-1.001-2.412-.668-.667-1.472-1.001-2.412-1.001-1.051,0-1.932.088-2.643.263s-1.525.492-2.444.951c-.328.153-.498.274-.509.361-.012.088-.049.328-.115.722-.087.504-.186.996-.295,1.477-.109.482-.219.975-.328,1.478-.088.481-.176.951-.263,1.411-.088.459-.187.94-.295,1.443-.197.963-.367,1.959-.509,2.986-.143,1.029-.269,2.046-.378,3.053-.044.328-.104.793-.181,1.395-.076.602-.158,1.226-.246,1.87-.087.646-.158,1.253-.213,1.821-.055.569-.082.985-.082,1.247Z" data-index="16"></path>
    <path class="cls-1" d="M399.395,123.558c0-.415.108-.858.328-1.329.218-.47.492-.907.82-1.312.328-.404.7-.744,1.115-1.018.416-.273.82-.41,1.215-.41.722,0,1.099.273,1.132.82s-.202,1.138-.705,1.772c-.263.307-.657.64-1.182,1.001-.525.36-1.04.563-1.543.606,0,.351.011.662.033.936.021.274.175.553.459.837.284.285.646.427,1.083.427.284,0,.58-.055.887-.164.306-.109.602-.235.886-.377.284-.143.553-.296.804-.46.252-.164.454-.312.607-.443.132-.108.235-.196.312-.262.077-.066.17-.143.279-.23.328-.263.563-.47.705-.623.143-.153.252-.273.329-.361.076-.087.164-.142.262-.164.099-.021.268-.032.509-.032.044.24.061.404.05.492-.012.087-.094.219-.246.394-.307.307-.668.646-1.083,1.018-.416.372-.87.722-1.362,1.05s-.996.602-1.51.82-1.022.328-1.525.328c-.744,0-1.379-.263-1.903-.787-.395-.395-.619-.799-.673-1.215-.056-.415-.082-.853-.082-1.312ZM400.871,122.771c.196-.109.421-.241.673-.395.251-.152.486-.322.705-.509.219-.186.405-.394.559-.623.152-.229.24-.476.262-.738-.219.044-.448.147-.688.312-.241.164-.46.355-.656.574-.197.219-.373.454-.525.706-.153.251-.263.476-.328.673Z" data-index="17"></path>
    <path class="cls-1" d="M428.437,126.183c0-.809.038-1.679.115-2.608.076-.93.181-1.871.312-2.822.131-.952.284-1.882.46-2.79.175-.907.36-1.733.558-2.478.065-.24.142-.509.229-.804.087-.296.186-.574.296-.837.108-.263.234-.486.377-.673.142-.186.322-.279.541-.279.263,0,.427.099.493.296.065.197.07.427.016.689-.055.262-.126.514-.213.755-.088.24-.143.404-.164.492-.153.547-.323,1.269-.509,2.166-.187.896-.372,1.87-.558,2.92-.187,1.051-.345,2.139-.477,3.266-.131,1.127-.219,2.204-.262,3.232-.045,1.028-.028,1.964.049,2.806.076.842.234,1.493.476,1.953.372-.197.678-.492.919-.887.24-.394.448-.776.624-1.148.503-.962.995-1.979,1.477-3.052.48-1.071.984-2.078,1.51-3.02.175-.35.36-.524.558-.524.087,0,.158.038.213.114.055.077.082.159.082.246,0,.045-.055.181-.164.41-.109.23-.229.481-.36.755-.132.274-.263.531-.394.771-.132.241-.22.405-.263.492-.176.351-.361.75-.559,1.198-.196.448-.394.897-.59,1.346-.197.448-.395.88-.591,1.296-.197.415-.384.776-.559,1.083-.087.131-.191.301-.312.509-.12.207-.257.41-.41.606-.153.197-.323.361-.509.493-.186.131-.377.196-.574.196-.438,0-.782-.219-1.033-.656-.252-.438-.438-.979-.559-1.624-.12-.646-.191-1.324-.213-2.035-.022-.711-.033-1.329-.033-1.854Z" data-index="18"></path>
    <path class="cls-1" d="M458.76,128.841c-.438,0-.826-.142-1.165-.426s-.596-.58-.771-.887c-.395-.743-.619-1.624-.673-2.642-.056-1.018.005-1.941.18-2.773.021-.175.061-.382.115-.623.055-.24.126-.476.213-.706.088-.229.197-.426.329-.59.131-.164.272-.246.426-.246.372,0,.591.093.657.278.065.187.065.476,0,.87-.066.394-.159.897-.279,1.509-.121.613-.181,1.335-.181,2.166,0,.241.021.531.065.87.044.34.115.662.214.968.098.307.229.563.394.771s.355.312.574.312c.263,0,.558-.093.886-.278s.646-.41.952-.673c.306-.263.585-.525.837-.788.251-.263.442-.47.574-.623.044-.044.164-.197.361-.46.196-.263.426-.546.688-.853s.53-.58.805-.821c.272-.24.486-.36.64-.36.152,0,.229.131.229.394,0,.153-.104.389-.312.705-.208.318-.454.651-.738,1.001-.285.351-.563.679-.837.985-.274.307-.476.524-.607.656-.196.196-.421.427-.673.688-.252.263-.53.509-.837.738-.307.23-.629.427-.968.591-.34.164-.706.246-1.1.246ZM457.71,115.813c0-.371.099-.694.295-.968.197-.273.416-.41.656-.41.263,0,.481.164.656.492.307.612.345,1.089.115,1.428s-.509.509-.837.509c-.241,0-.448-.082-.623-.246-.176-.164-.263-.433-.263-.805Z" data-index="19"></path>
    <path class="cls-1" d="M485.408,125.396c0-.46.115-1.034.345-1.723.229-.689.536-1.356.919-2.002.382-.646.831-1.192,1.346-1.641.514-.448,1.055-.673,1.624-.673.394,0,.732.098,1.018.295.284.197.503.41.656.64.152.23.224.443.213.641-.011.196-.126.295-.345.295-.24,0-.471-.126-.688-.377-.219-.252-.481-.378-.788-.378-.241,0-.53.143-.869.427-.34.284-.75.843-1.23,1.674-.22.351-.422.804-.607,1.361-.187.559-.279,1.111-.279,1.658.044-.044.061-.055.05-.033-.012.022.026-.021.114-.131l.263-.395c.175-.263.378-.606.607-1.033s.459-.842.688-1.247c.23-.405.448-.76.657-1.066.207-.307.365-.46.476-.46.284,0,.476.082.574.246s.158.378.181.64c.021.263.032.559.032.887s.033.646.099.951c.132.591.333,1.023.607,1.297.273.273.585.41.936.41.612,0,1.29-.372,2.034-1.116.307-.284.52-.52.64-.705s.301-.399.542-.641c.152-.218.35-.328.591-.328.131,0,.229.05.295.148.065.098.076.251.033.459-.044.208-.17.465-.378.771s-.52.656-.935,1.05l-.985.788c-.635.438-1.247.656-1.837.656-.416,0-.788-.099-1.116-.296-.328-.196-.607-.442-.837-.738-.229-.295-.41-.629-.541-1.001-.132-.371-.197-.732-.197-1.083-.153.11-.328.356-.525.738-.196.384-.41.777-.64,1.182-.229.405-.465.771-.705,1.1-.241.328-.482.492-.723.492-.612,0-.984-.142-1.115-.427-.132-.284-.197-.722-.197-1.312Z" data-index="20"></path>
    <path class="cls-1" d="M517.274,126.643c0-.831.033-1.865.099-3.102.065-1.235.164-2.511.296-3.823.131-1.312.306-2.576.524-3.79s.481-2.204.788-2.97c.175-.438.339-.738.492-.902.152-.164.295-.246.427-.246.152,0,.273.076.361.229.087.153.119.284.098.394,0,.044-.027.159-.082.345s-.093.355-.114.509c-.176.678-.361,1.581-.559,2.707-.196,1.127-.377,2.297-.541,3.512-.164,1.214-.296,2.385-.394,3.512-.099,1.127-.148,2.018-.148,2.674l.723-1.181c.175-.372.427-.744.755-1.116.35-.481.738-.858,1.165-1.132s.858-.41,1.296-.41c.7,0,1.258.372,1.674,1.115.372.722.525,1.368.459,1.937-.065.569-.098,1.104-.098,1.607.306-.175.562-.312.771-.41.208-.098.405-.201.591-.312.186-.109.383-.229.591-.36.208-.132.454-.307.738-.525.153-.109.35-.268.591-.476.24-.208.481-.41.722-.607.241-.197.454-.372.641-.525.186-.152.312-.229.377-.229.328,0,.503.071.525.213.021.143-.028.302-.147.477-.121.175-.263.339-.427.492s-.269.241-.312.263c-.24.262-.492.492-.754.688-.263.197-.525.416-.788.656-.263.197-.586.405-.968.624-.384.219-.755.438-1.116.656s-.679.41-.951.574c-.274.164-.433.279-.477.345-.065.109-.17.361-.312.755-.143.394-.345.842-.607,1.346-.262.503-.602,1.012-1.017,1.525-.416.514-.931.957-1.543,1.329-.766.481-1.542.723-2.33.723-.459,0-.854-.115-1.182-.345-.328-.23-.492-.597-.492-1.1,0-.481.225-.957.673-1.428s.979-.914,1.592-1.329c.612-.416,1.241-.793,1.887-1.132s1.165-.607,1.56-.805c.306-.152.497-.251.574-.295.076-.044.158-.251.246-.624.109-.459.175-.913.196-1.361s0-.848-.065-1.198c-.065-.35-.181-.634-.345-.853s-.366-.328-.606-.328c-.416,0-.941.36-1.575,1.083-.416.503-.761,1.039-1.034,1.607-.273.569-.515,1.1-.722,1.592-.208.492-.389.902-.542,1.23s-.307.492-.459.492c-.219,0-.383-.077-.492-.229-.11-.152-.181-.345-.214-.574-.032-.229-.044-.481-.032-.755.011-.273.016-.52.016-.738ZM518.324,132.747c.503,0,.962-.143,1.378-.426.416-.285.799-.63,1.148-1.034.35-.405.662-.843.936-1.312.273-.471.509-.892.706-1.264-.11.044-.296.126-.559.246-.262.12-.541.263-.837.427-.295.164-.574.322-.836.476-.263.153-.449.263-.559.328-.284.175-.596.41-.936.706-.339.295-.612.579-.82.853s-.301.509-.278.706c.021.197.24.295.656.295Z" data-index="21"></path>
    <path class="cls-1" d="M553.077,128.841c-.438,0-.826-.142-1.165-.426s-.596-.58-.771-.887c-.395-.743-.619-1.624-.673-2.642-.056-1.018.005-1.941.18-2.773.021-.175.061-.382.115-.623.055-.24.126-.476.213-.706.088-.229.197-.426.329-.59.131-.164.272-.246.426-.246.372,0,.591.093.657.278.065.187.065.476,0,.87-.066.394-.159.897-.279,1.509-.121.613-.181,1.335-.181,2.166,0,.241.021.531.065.87.044.34.115.662.214.968.098.307.229.563.394.771.164.208.355.312.574.312.263,0,.558-.093.886-.278s.646-.41.952-.673c.306-.263.585-.525.837-.788.251-.263.442-.47.574-.623.044-.044.164-.197.361-.46.196-.263.426-.546.688-.853s.53-.58.805-.821c.272-.24.486-.36.64-.36.152,0,.229.131.229.394,0,.153-.104.389-.312.705-.208.318-.454.651-.738,1.001-.285.351-.563.679-.837.985-.274.307-.476.524-.607.656-.196.196-.421.427-.673.688-.252.263-.53.509-.837.738-.307.23-.629.427-.968.591-.34.164-.706.246-1.1.246ZM552.028,115.813c0-.371.099-.694.295-.968.197-.273.416-.41.656-.41.263,0,.481.164.656.492.307.612.345,1.089.115,1.428s-.509.509-.837.509c-.241,0-.448-.082-.623-.246-.176-.164-.263-.433-.263-.805Z" data-index="22"></path>
    <path class="cls-1" d="M579.79,126.183c0-.809.038-1.679.115-2.608.076-.93.181-1.871.312-2.822.131-.952.284-1.882.46-2.79.175-.907.36-1.733.558-2.478.065-.24.142-.509.229-.804.087-.296.186-.574.296-.837.108-.263.234-.486.377-.673.142-.186.322-.279.541-.279.263,0,.427.099.493.296.065.197.07.427.016.689-.055.262-.126.514-.213.755-.088.24-.143.404-.164.492-.153.547-.323,1.269-.509,2.166-.187.896-.372,1.87-.558,2.92-.187,1.051-.345,2.139-.477,3.266-.131,1.127-.219,2.204-.262,3.232-.045,1.028-.028,1.964.049,2.806.076.842.234,1.493.476,1.953.372-.197.678-.492.919-.887.24-.394.448-.776.624-1.148.503-.962.995-1.979,1.477-3.052.48-1.071.984-2.078,1.51-3.02.175-.35.36-.524.558-.524.087,0,.158.038.213.114.055.077.082.159.082.246,0,.045-.055.181-.164.41-.109.23-.229.481-.36.755-.132.274-.263.531-.394.771-.132.241-.22.405-.263.492-.176.351-.361.75-.559,1.198-.196.448-.394.897-.59,1.346-.197.448-.395.88-.591,1.296-.197.415-.384.776-.559,1.083-.087.131-.191.301-.312.509-.12.207-.257.41-.41.606-.153.197-.323.361-.509.493-.186.131-.377.196-.574.196-.438,0-.782-.219-1.033-.656-.252-.438-.438-.979-.559-1.624-.12-.646-.191-1.324-.213-2.035-.022-.711-.033-1.329-.033-1.854Z" data-index="23"></path>
    <path class="cls-1" d="M610.114,128.841c-.438,0-.826-.142-1.165-.426s-.596-.58-.771-.887c-.395-.743-.619-1.624-.673-2.642-.056-1.018.005-1.941.18-2.773.021-.175.061-.382.115-.623.055-.24.126-.476.213-.706.088-.229.197-.426.329-.59.131-.164.272-.246.426-.246.372,0,.591.093.657.278.065.187.065.476,0,.87-.066.394-.159.897-.279,1.509-.121.613-.181,1.335-.181,2.166,0,.241.021.531.065.87.044.34.115.662.214.968.098.307.229.563.394.771s.355.312.574.312c.263,0,.558-.093.886-.278s.646-.41.952-.673c.306-.263.585-.525.837-.788.251-.263.442-.47.574-.623.044-.044.164-.197.361-.46.196-.263.426-.546.688-.853s.53-.58.805-.821c.272-.24.486-.36.64-.36.152,0,.229.131.229.394,0,.153-.104.389-.312.705-.208.318-.454.651-.738,1.001-.285.351-.563.679-.837.985-.274.307-.476.524-.607.656-.196.196-.421.427-.673.688-.252.263-.53.509-.837.738-.307.23-.629.427-.968.591-.34.164-.706.246-1.1.246ZM609.064,115.813c0-.371.099-.694.295-.968.197-.273.416-.41.656-.41.263,0,.481.164.656.492.307.612.345,1.089.115,1.428s-.509.509-.837.509c-.241,0-.448-.082-.623-.246-.176-.164-.263-.433-.263-.805Z" data-index="24"></path>
    <path class="cls-1" d="M627.539,114.074c0-.24.191-.492.574-.755s.87-.524,1.461-.787c.59-.263,1.247-.514,1.969-.755.722-.24,1.433-.465,2.133-.673s1.346-.388,1.937-.541,1.039-.273,1.346-.361c.35-.087.612-.147.787-.181s.307-.076.394-.131c.088-.055.148-.143.181-.263.033-.12.082-.322.147-.607.176-.896.378-1.515.607-1.854.229-.339.454-.508.673-.508.175,0,.322.093.443.278.12.187.181.41.181.673,0,.197-.012.279-.033.246-.022-.032-.022.038,0,.214,0,.044.005.098.017.164.011.065.017.153.017.262,0,.22-.033.345-.099.378-.065.032-.143.055-.23.065-.087.012-.164.049-.23.115-.065.065-.099.229-.099.492.263,0,.553-.033.87-.099.316-.065.596-.12.837-.164.962-.175,1.925-.333,2.888-.476s1.947-.214,2.954-.214c.394,0,.705.065.935.197.23.131.378.278.443.443.065.164.044.317-.065.459-.11.143-.317.213-.624.213-.044-.175-.071-.257-.082-.246-.011.012-.114-.005-.312-.049-.088-.021-.263-.033-.525-.033-.459,0-1.072.05-1.838.148-.766.098-1.542.213-2.329.344-.788.132-1.505.258-2.15.378s-1.066.202-1.263.246l-.656,6.728c-.022.153-.028.317-.017.492.011.176.017.351.017.525,0,.219-.017.36-.05.427-.033.065-.049.219-.049.459,0,.481.011,1.034.032,1.657.021.624.011,1.11-.032,1.46-.022.241-.044.777-.066,1.608-.021.832-.032,1.734-.032,2.708v2.806c0,.896.011,1.521.032,1.87,0,.197.022.465.066.805.043.339.07.672.082,1,.011.329-.017.612-.082.854-.066.24-.208.361-.427.361s-.389-.065-.509-.197c-.12-.131-.208-.295-.263-.492-.055-.196-.088-.41-.099-.64s-.017-.443-.017-.64c-.044-.591-.076-1.264-.098-2.019-.022-.755-.033-1.526-.033-2.313s.005-1.56.017-2.313c.011-.755.017-1.428.017-2.019l.098-1.543v-1.427c0-.646.012-1.313.033-2.002.021-.689.044-1.335.065-1.937s.055-1.022.099-1.264c.044-.218.071-.48.082-.787s.027-.569.05-.788l.295-3.052c-.109.044-.307.094-.591.147-.284.055-.515.104-.689.147-1.094.263-2.121.542-3.084.837-.963.296-1.958.641-2.987,1.034-.196.088-.377.181-.541.279-.164.098-.345.191-.541.278-.197.088-.34.147-.427.181-.088.033-.143.071-.164.115s-.044.104-.066.18c-.021.077-.065.192-.131.345-.219.044-.404.066-.558.066-.175,0-.334-.033-.477-.099-.142-.066-.213-.219-.213-.46Z" data-index="25"></path>
    <path class="cls-1" d="M664.163,125.823c.416-.219.914-.706,1.493-1.461.58-.755,1.165-1.591,1.756-2.51s1.144-1.821,1.657-2.708c.515-.886.914-1.569,1.198-2.051.263-.438.443-.728.541-.87.099-.142.323-.213.673-.213.175,0,.307.131.395.394.087.263.152.563.196.902.044.34.065.679.065,1.018v3.298c0,.416-.016.849-.049,1.297s-.065.886-.099,1.312c-.032.427-.065.82-.099,1.182-.032.36-.049.662-.049.902l4.692-2.724c.044-.044.132-.109.263-.197.132-.087.273-.175.427-.263.153-.087.307-.169.46-.246.152-.076.295-.114.427-.114.196,0,.295.12.295.36,0,.132-.109.285-.328.46s-.476.355-.771.541c-.295.187-.574.351-.837.492-.263.143-.448.246-.558.312-.679.373-1.352.771-2.019,1.198s-1.318.859-1.952,1.296c-.176.11-.263.203-.263.279,0,.077-.022.235-.065.476-.11.81-.263,1.707-.46,2.691-.196.984-.427,1.974-.688,2.97-.263.995-.563,1.947-.903,2.855-.339.907-.705,1.689-1.099,2.347-.241.459-.537.913-.887,1.361s-.738.854-1.165,1.215c-.426.36-.886.65-1.378.869s-1.013.328-1.559.328c-.81,0-1.487-.273-2.035-.82-.546-.547-.82-1.312-.82-2.297,0-.897.29-1.888.87-2.971s1.29-2.139,2.133-3.166c.842-1.029,1.733-1.986,2.675-2.872.94-.886,1.771-1.581,2.494-2.084.109-.109.207-.186.295-.229.087-.044.197-.12.328-.229.307-.263.53-.438.673-.525.143-.087.225-.284.246-.591.109-.831.202-1.613.279-2.347.076-.732.147-1.46.213-2.182.065-.723.115-1.472.147-2.248.033-.776.05-1.636.05-2.576-.065.044-.252.307-.558.787-.307.481-.641,1.023-1.001,1.625-.361.602-.706,1.176-1.034,1.723s-.558.919-.689,1.116c-.328.524-.728,1.143-1.197,1.854-.471.711-.925,1.275-1.362,1.69-.416.372-.799.558-1.148.558-.372,0-.673-.169-.902-.509-.229-.339-.345-.792-.345-1.361,0-.35.049-.793.147-1.329s.23-1.051.395-1.543.36-.919.59-1.279c.23-.361.477-.542.739-.542.371,0,.552.132.541.394-.012.263-.094.63-.246,1.1-.153.471-.323,1.034-.509,1.69-.187.656-.279,1.378-.279,2.166ZM663.409,141.871c.459,0,.891-.11,1.296-.329.404-.219.776-.497,1.115-.836s.641-.706.903-1.1c.262-.394.492-.767.688-1.116.241-.459.509-1.121.805-1.985.295-.864.574-1.783.837-2.757.262-.974.486-1.909.672-2.806.187-.897.301-1.597.345-2.101-.263.175-.503.339-.722.492l-3.216,2.855c-.11.087-.203.191-.279.312-.077.12-.181.235-.312.345-.525.525-.996,1.051-1.411,1.575-.416.525-.832,1.104-1.247,1.739-.197.284-.41.646-.64,1.083-.23.438-.41.902-.542,1.395-.131.493-.181.979-.147,1.461.032.48.213.896.541,1.247.285.35.723.525,1.313.525Z" data-index="26"></path>
  </g>
</svg>