<svg id="Layer_1" xmlns="http://www.w3.org/2000/svg" version="1.1" viewBox="0 0 687.6 91.7">
  <!-- Generator: Adobe Illustrator 30.1.0, SVG Export Plug-In . SVG Version: 2.1.1 Build 136)  -->
  <defs>
    <style>
      .st0 {
        fill: #124481;
      }
    </style>
  </defs>
  <path class="st0" d="M681.4,62.1h-99.3v-14.9h81c4.7,0,3.1-7.5,1.7-9h-77.6c-2.8,0-5.8-2.3-5.8-4.6V5.3c0-2.5,2.6-5.2,5.7-5.2h99.9v14.6h-82.8c-.8,3.1-.8,5.8.2,9h76.4c3.9,0,6.8,4.1,6.8,7v25.7c0,2.1-2.7,5.7-6,5.7h-.2Z" data-index="0"></path>
  <path class="st0" d="M567.9.2v56.6c-.3,2.4-2,5.4-5.3,5.4h-98.1c-4.7,0-7.1-3.6-7.1-7.3V.2h22v44.4c0,.3.2,1.1.3,1.3s1.1.6,1.7.6h64.7V.3h21.7c0,0,0-.1,0-.1Z" data-index="1"></path>
  <g>
    <path class="st0" d="M300.2,15.3h-58.3c-1,0-2,1.1-2,1.9v27.2c0,1.2,1.1,2.1,2.5,1.9h49.4v16.8l-61-.2c-8.3,0-14.7-7.4-14.7-14.1l.2-37.8c0-4.6,5.1-10.8,10.9-10.8l91.4-.2c3.5,0,5.3,2.5,5.3,5.3v81.1c0,2.8-2.8,4.5-5.8,4.4h-95.4v-16.8h77.3c1,0,2-.9,2-1.8V16.8c0-.5-1-1.6-1.7-1.6h-.1q0,.1,0,.1Z" data-index="2"></path>
    <path class="st0" d="M180.4,91.6h-59.7v-13.7h51.3c2.2,0,4.8-1.4,5.1-3.4s.2-3.7,0-5.6h-28.7c-10.8,0-22.3-3.8-28-12-2.9-4.2-3.3-8.8-3.8-13.7V.2h25.7v38.2c1.2,6.1,5.7,12,13.2,12.6,7.2.5,14.2,0,21.5.2s2.5-.8,2.8-1.9V.2h25.1v69.2c-.3,12.2-9.4,22.3-24.5,22.3h0s0,0,0,0h0Z" data-index="3"></path>
    <path class="st0" d="M21.7,46.4h84.1v15.8H7.1c-4,0-7.1-3.1-7.1-6.4V6.9C0,4.4,2.7.3,6.1.3h99.2v15.1H23.5c-1.9,0-3.4,1.1-3.5,2.9v25.3c0,.6.7,2.8,1.7,2.8h0Z" data-index="4"></path>
    <path class="st0" d="M423.6,40.9c0-7.7-2.4-16.6-11-20.6-4.9-1.8-10-4.6-15.5-4.6h-38.2v46.4h-21.8V4.4c0-2.3,1.9-4.3,4.7-4.3h69.6c12.4,0,32.5,9.5,32.5,19.8v42.2h-20.1v-21.3s-.2,0-.2.1Z" data-index="5" style="opacity: 1;"></path>
  </g>
</svg>