<svg xmlns:dc="http://purl.org/dc/elements/1.1/" xmlns:cc="http://creativecommons.org/ns#" xmlns:rdf="http://www.w3.org/1999/02/22-rdf-syntax-ns#" xmlns:svg="http://www.w3.org/2000/svg" xmlns="http://www.w3.org/2000/svg" viewBox="0 0 720 144" id="svg2" height="144" width="720" version="1.1">
  <metadata id="metadata20" fill="#000000">
    <rdf:RDF fill="#000000">
      <cc:Work rdf:about="" fill="#000000">
        <dc:format fill="#000000">image/svg+xml</dc:format>
        <dc:type rdf:resource="http://purl.org/dc/dcmitype/StillImage" fill="#000000"/>
      </cc:Work>
    </rdf:RDF>
  </metadata>
  <defs id="defs18" fill="#000000"/>
  <path id="path4" style="fill:#124481;fill-rule:evenodd" d="m 194.1917,97.632 19.2897,0 0,-51.8743 23.6937,0 0,64.5888 c 0,8.5144 -2.6666,14.872 -7.9708,19.0471 -5.5632,4.3424 -14.0748,6.5245 -25.6209,6.5245 l -46.7031,0 0,-13.4685 42.3049,0 c 4.3665,0 7.7147,-0.6307 9.9844,-1.9077 2.8678,-1.6367 4.3118,-4.4496 4.3118,-8.4135 l -20.9381,0 c -12.6539,0 -21.8758,-1.8448 -27.6891,-5.5375 -6.3283,-4.0079 -9.4754,-10.6143 -9.4754,-19.7816 l 0,-41.0516 23.1789,0 0,39.5189 c 0,4.3866 0.6789,7.3415 2.071,8.8521 2.1575,2.3303 6.6966,3.5033 13.563,3.5033 l 0,0 z"/>
  <path id="path6" style="fill:#124481;fill-rule:evenodd" d="M 145.3059,45.9204 C 118.8425,45.8643 92.3791,45.8084 65.9157,45.7523 50.144,45.9765 42.258,50.91 42.258,60.5526 c 0,10.1471 0,20.2946 0,30.4418 -1.2132,11.4367 6.6725,16.5943 23.6577,15.4732 26.4634,0 52.9268,0 79.3902,0 0,-5.1576 0,-10.3156 0,-15.4732 -24.1886,-0.0561 -48.3772,-0.1123 -72.5658,-0.1681 -6.5211,0.2803 -9.7058,-1.4579 -9.5541,-5.2138 0.0759,-6.5032 0.1516,-13.0065 0.2276,-19.5097 0.6046,-3.3673 3.7893,-5.2736 9.5539,-5.7183 24.1129,0.1119 48.2258,0.2242 72.3384,0.3362 0,-4.9335 0,-9.8669 0,-14.8003 l 0,0 z"/>
  <path id="path8" style="fill:#124481;fill-rule:evenodd" d="m 320.0511,90.8263 c 0,5.1576 0,10.3153 0,15.4732 -17.5162,0 -35.032,0 -52.5479,0 -14.3503,-0.631 -19.6956,-6.3213 -18.8807,-15.4732 0,-10.0913 0,-20.1824 0,-30.2737 0.455,-9.4184 6.6728,-14.3518 18.6531,-14.8003 23.7339,0 47.4676,0 71.2012,0 8.5244,0.3138 13.472,3.3684 13.1939,10.4275 0,23.7702 0,47.5407 0,71.3109 0.3832,6.4432 -5.0009,8.8804 -14.3314,8.5777 -29.5722,-0.0561 -59.1446,-0.112 -88.7168,-0.1681 0,-5.0457 0,-10.0914 0,-15.1367 24.8709,0.0558 49.7421,0.1119 74.6133,0.1681 3.9472,0.1031 7.4429,-0.203 7.2793,-3.7001 0.0757,-16.3701 0.1517,-32.7405 0.2274,-49.1105 -0.8337,-5.2983 -5.0043,-7.2043 -10.6914,-7.5685 -13.0422,0.0561 -26.0845,0.1122 -39.1267,0.1681 -8.2825,0.1046 -10.1712,2.9673 -11.1464,6.2231 0,5.6622 0,11.3245 0,16.9867 -0.3792,4.7653 2.5782,7.0639 8.8716,6.8958 13.8005,0 27.601,0 41.4015,0 l 0,0 z"/>
  <path id="path10" style="fill:#124481;fill-rule:evenodd" d="m 383.0627,106.2995 c -6.8244,0 -13.6488,0 -20.4733,0 0,-20.1824 0,-40.3648 0,-60.5472 21.4592,0 42.918,0 64.3768,0 21.5371,3.2502 36.6265,10.7062 37.5341,27.4142 0,11.1004 0,22.2006 0,33.3011 -6.5211,0 -13.0422,0 -19.5633,0 -0.0756,-9.0819 -0.1516,-18.1641 -0.2273,-27.2461 -0.2259,-10.9612 -9.629,-16.0625 -23.203,-18.5008 -12.8577,0.0053 -25.7156,0.0107 -38.5736,0.0156 0.0434,15.188 0.0865,30.3754 0.1296,45.5632 l 0,0 z"/>
  <path id="path12" style="fill:#124481;fill-rule:evenodd" d="m 477.6942,45.5839 c 6.4451,0.0562 12.8906,0.1123 19.3357,0.1684 0,13.3427 0,26.6857 0,40.0283 0.0864,3.623 2.8729,5.4029 7.507,5.2138 15.9993,0 31.9986,0 47.9979,0 5.1622,-0.0445 7.6552,-1.9089 7.507,-5.5502 0,-13.2308 0,-26.4615 0,-39.6919 6.5211,0 13.0419,0 19.563,0 0,17.7715 0,35.5434 0,53.3152 -0.2256,4.5465 -4.0941,6.957 -8.8727,7.232 -28.2076,0.0561 -55.0488,0.112 -83.2564,0.1681 -6.5248,-0.0496 -9.7092,-2.5727 -9.5542,-7.5682 -0.0756,-17.7718 -0.1516,-35.5437 -0.2273,-53.3155 l 0,0 z"/>
  <path id="path14" style="fill:#124481;fill-rule:evenodd" d="m 693.572,45.7523 c -30.2547,0 -60.5094,0 -90.7642,0 -7.6584,0.8969 -11.6773,3.812 -12.0563,8.7457 -0.076,6.2788 -0.1517,12.5578 -0.2276,18.8368 0.3038,6.8672 5.157,10.2311 14.5587,9.923 21.3072,0 42.6144,0 63.9216,0 5.0201,-0.2038 5.788,7.6873 0,7.7366 -26.1601,0 -52.3202,0 -78.4803,0 0,5.1576 0,10.3156 0,15.4732 31.1646,0 62.3293,0 93.494,0 5.9159,-0.2239 9.934,-2.13 9.7818,-7.7366 -0.076,-6.6713 -0.152,-13.343 -0.2277,-20.0143 0.6565,-8.3293 -6.6262,-10.0213 -15.696,-10.2592 -20.9282,-0.0561 -41.8563,-0.1122 -62.7843,-0.1683 -4.5535,0.0071 -4.7811,-7.6309 0,-7.7366 26.2358,0.0561 52.4719,0.1122 78.708,0.1681 -0.076,-4.9893 -0.152,-9.9788 -0.2277,-14.9684 l 0,0 z"/>
</svg>