<?xml version="1.0" encoding="UTF-8"?>
<svg id="Layer_1" xmlns="http://www.w3.org/2000/svg" version="1.1" viewBox="0 0 1080 1080">
  <!-- Generator: Adobe Illustrator 30.1.0, SVG Export Plug-In . SVG Version: 2.1.1 Build 136)  -->
  <defs>
    <style>
      .st0{fill:#010101;}
    </style>
  </defs>
  <path class="st0" d="M877.7,556.2h-99.3c0,0,0-14.9,0-14.9h81c4.7,0,3.1-7.5,1.7-9h-77.6c-2.8,0-5.8-2.3-5.8-4.6v-28.3c0-2.5,2.6-5.2,5.7-5.2h99.9s.1,14.6.1,14.6h-82.9c-.8,3.1-.8,5.8.2,9h76.4c3.9,0,6.8,4.1,6.8,7v25.7c0,2.1-2.7,5.7-6,5.7Z"/>
  <path class="st0" d="M764.2,494.3v56.6c-.3,2.4-2,5.4-5.3,5.4h-98.1c-4.7,0-7.1-3.6-7.1-7.3v-54.7s22,0,22,0v44.4c0,.3.2,1.1.3,1.3s1.1.6,1.7.6h64.7s0-46.2,0-46.2h21.7Z"/>
  <g>
    <path class="st0" d="M496.5,509.4h-58.3c-1,0-2,1.1-2,1.9v27.2c0,1.2,1.1,2.1,2.5,1.9h49.4s0,16.8,0,16.8l-61-.2c-8.3,0-14.7-7.4-14.7-14.1l.2-37.8c0-4.6,5.1-10.8,10.9-10.8l91.4-.2c3.5,0,5.3,2.5,5.3,5.3v81.1c0,2.8-2.8,4.5-5.8,4.4h-95.4s0-16.8,0-16.8h77.3c1,0,2-.9,2-1.8v-55.4c0-.5-1-1.6-1.7-1.6Z"/>
    <path class="st0" d="M376.7,585.7h-59.7c0,0,0-13.7,0-13.7h51.3c2.2,0,4.8-1.4,5.1-3.4s.2-3.7,0-5.6h-28.7c-10.8,0-22.3-3.8-28-12-2.9-4.2-3.3-8.8-3.8-13.7v-43s25.7,0,25.7,0v38.2c1.2,6.1,5.7,12,13.2,12.6,7.2.5,14.2,0,21.5.2s2.5-.8,2.8-1.9v-49.1c0,0,25.1,0,25.1,0v69.2c-.3,12.2-9.4,22.3-24.5,22.3Z"/>
    <path class="st0" d="M218,540.5h84.1s0,15.8,0,15.8h-98.7c-4,0-7.1-3.1-7.1-6.4v-48.9c0-2.5,2.7-6.6,6.1-6.6h99.2c0,0,0,15.1,0,15.1h-81.8c-1.9,0-3.4,1.1-3.5,2.9v25.3c0,.6.7,2.8,1.7,2.8Z"/>
    <path class="st0" d="M619.9,535c0-7.7-2.4-16.6-11-20.6-4.9-1.8-10-4.6-15.5-4.6h-38.2c0,0,0,46.4,0,46.4h-21.8s0-57.7,0-57.7c0-2.3,1.9-4.3,4.7-4.3h69.6c12.4.1,32.5,9.5,32.5,19.8v42.2s-20.1,0-20.1,0v-21.3Z"/>
  </g>
</svg>