<?xml version="1.0" standalone="no"?>
<!DOCTYPE svg PUBLIC "-//W3C//DTD SVG 20010904//EN"
 "http://www.w3.org/TR/2001/REC-SVG-20010904/DTD/svg10.dtd">
<svg version="1.0" xmlns="http://www.w3.org/2000/svg"
 width="300.000000pt" height="150.000000pt" viewBox="0 0 300.000000 150.000000"
 preserveAspectRatio="xMidYMid meet">

<g transform="translate(0.000000,150.000000) scale(0.100000,-0.100000)"
fill="#000000" stroke="none">
<path d="M265 830 c-103 -182 -186 -333 -183 -335 3 -3 174 -4 381 -3 l376 3
-187 327 c-103 179 -190 329 -193 332 -3 3 -90 -143 -194 -324z m281 13 c48
-87 98 -175 111 -195 12 -21 23 -40 23 -43 0 -3 -101 -5 -224 -5 l-224 0 111
200 c61 110 112 200 113 200 1 0 42 -71 90 -157z"/>
<path d="M1010 894 c-113 -49 -162 -181 -109 -292 50 -103 212 -144 292 -74
15 14 17 13 17 -6 0 -19 6 -22 45 -22 l45 0 0 200 0 200 -45 0 c-37 0 -45 -3
-45 -19 0 -17 -3 -17 -47 5 -53 27 -103 30 -153 8z m140 -89 c16 -9 36 -29 45
-45 55 -107 -58 -221 -165 -165 -43 22 -60 53 -60 108 0 42 5 54 34 83 28 28
42 34 75 34 23 0 55 -7 71 -15z"/>
<path d="M1589 890 c-20 -11 -48 -33 -62 -50 -14 -16 -28 -30 -31 -30 -3 0 -6
20 -6 45 l0 45 -40 0 -40 0 0 -200 0 -200 45 0 45 0 0 113 c0 91 4 116 18 133
22 28 54 44 85 44 22 0 26 6 32 43 3 23 9 50 11 60 7 22 -11 21 -57 -3z"/>
<path d="M1805 891 c-106 -49 -153 -172 -106 -277 36 -78 137 -134 217 -120
39 8 104 36 104 45 0 3 -12 19 -26 35 -22 25 -28 27 -50 17 -37 -17 -85 -13
-122 9 -37 23 -52 54 -52 112 0 32 7 47 34 74 29 29 41 34 81 34 25 0 54 -4
64 -10 14 -7 24 -3 47 21 28 30 29 31 9 45 -49 36 -139 43 -200 15z"/>
<path d="M2196 896 c-147 -55 -182 -249 -63 -353 116 -101 297 -42 338 110 21
78 -15 170 -87 220 -49 35 -130 44 -188 23z m149 -109 c56 -56 58 -111 7 -168
-52 -58 -152 -47 -187 21 -8 16 -15 48 -15 71 0 35 6 47 36 75 29 28 43 34 81
34 38 0 50 -5 78 -33z"/>
<path d="M2731 894 c-18 -10 -43 -32 -55 -51 -11 -18 -24 -33 -28 -33 -5 0 -8
20 -8 45 l0 45 -40 0 -40 0 0 -200 0 -200 45 0 45 0 0 111 c0 125 14 170 61
194 43 23 92 19 117 -8 20 -22 22 -33 22 -160 l0 -137 46 0 45 0 -3 170 -3
170 -32 31 c-26 27 -41 33 -85 36 -36 3 -63 -2 -87 -13z"/>
</g>
</svg>
